<svg width="132" height="21" viewBox="0 0 132 21" fill="none" xmlns="http://www.w3.org/2000/svg">
<path d="M12.3262 0.0292893C14.6153 -0.126452 16.9485 0.340767 18.9955 1.38646C22.0331 2.89938 24.4543 5.61373 25.5769 8.81756C26.0831 10.2415 26.3472 11.7321 26.3472 13.2451V18.8295C26.3472 19.052 26.3472 19.2967 26.3032 19.5192C26.1712 20.0754 25.775 20.5872 25.2467 20.8319C24.8725 21.0099 24.4543 21.0321 24.0801 20.9654C23.2437 20.8096 22.5833 20.0087 22.5833 19.141C22.5833 17.4056 22.5833 15.6702 22.5833 13.9348C22.6054 13.4453 22.6054 12.9113 22.3412 12.4886C21.923 11.6877 20.8665 11.3094 20.0521 11.6432C19.3477 11.8879 18.8415 12.6221 18.8195 13.3786C18.8195 15.1362 18.8195 16.8939 18.8195 18.6515C18.8195 18.9852 18.8415 19.319 18.7314 19.6305C18.5553 20.2534 18.0491 20.7429 17.4328 20.9209C16.6184 21.1434 15.6939 20.7874 15.2977 20.0309C15.0115 19.586 15.0336 19.0297 15.0556 18.518C15.0556 16.7604 15.0556 15.025 15.0556 13.2673C15.0336 12.3774 14.3072 11.5764 13.4488 11.4652C12.8765 11.3762 12.2822 11.5764 11.864 11.9769C11.4898 12.3329 11.2917 12.8446 11.2917 13.3563V18.4513C11.2917 18.874 11.3357 19.319 11.1816 19.7195C10.9395 20.4537 10.2131 20.9876 9.44275 20.9654C8.65035 21.0099 7.87996 20.4537 7.63784 19.7195C7.50577 19.3412 7.52778 18.963 7.52778 18.5625C7.52778 16.8049 7.52778 15.0472 7.52778 13.2896C7.52778 12.4219 6.84544 11.6209 6.00902 11.4652C5.23863 11.3094 4.40221 11.6876 4.00601 12.3996C3.85194 12.6888 3.76389 13.0226 3.76389 13.3563V19.0742C3.76389 19.6305 3.52177 20.1867 3.10356 20.5427C2.46524 21.0989 1.43072 21.1434 0.770387 20.6317C0.286144 20.2979 0 19.7195 0 19.1187V13.3341C0 11.1537 0.550277 8.9733 1.5848 7.03766C2.42122 5.45799 3.5878 4.05631 4.9745 2.94387C7.02153 1.20847 9.64085 0.185031 12.3262 0.0292893Z" fill="#BCBDBF"/>
<path d="M63.766 6.72539H60.9045C61.0146 4.70075 61.4328 2.87635 63.2597 1.71942C65.0866 0.58473 67.0896 0.317744 69.1807 0.495734C70.3032 0.58473 71.4258 0.829469 72.4603 1.31894C74.2872 2.1644 75.1897 3.61057 75.1897 5.6352C75.1897 9.21726 75.1897 12.7993 75.1897 16.3814C75.1897 17.694 75.4538 17.9388 76.7525 17.8053C76.8846 17.783 77.0386 17.7608 77.1707 17.7385C77.1927 17.8053 77.1927 17.872 77.1927 17.9165V20.0969C76.1582 20.4529 75.1017 20.5641 74.0671 20.2749C73.2967 20.0524 72.8125 19.4962 72.5484 18.762C72.4163 18.3838 72.3283 17.9833 72.2182 17.5606C72.1082 17.694 72.0201 17.8053 71.9101 17.9165C69.6429 20.2304 66.9576 21.2094 63.788 20.3862C61.5428 19.8077 60.0021 17.7385 59.936 15.3802C59.914 14.6237 59.9801 13.8673 60.1561 13.133C60.5744 11.4421 61.7629 10.4187 63.2597 9.72898C64.3162 9.23951 65.4608 9.10601 66.6054 8.95027C67.9481 8.77228 69.2687 8.61654 70.6114 8.4163C71.5138 8.28281 71.9761 7.79334 72.1081 6.88114C72.3943 5.03449 71.5799 3.81081 69.819 3.36583C68.7625 3.09885 67.6839 3.05435 66.6054 3.25459C65.0206 3.54382 64.1401 4.45602 63.832 6.03569C63.854 6.25817 63.81 6.48066 63.766 6.72539ZM72.1962 10.2852C70.8755 10.9972 69.5989 11.1752 68.3002 11.3754C67.2217 11.5534 66.1211 11.7091 65.0646 12.0429C63.6779 12.5101 63.0396 13.667 63.1717 15.2244C63.2817 16.5149 64.1401 17.5606 65.5268 17.783C67.6619 18.139 69.5549 17.5383 71.0516 15.9364C71.4918 15.4692 71.844 14.8017 71.9321 14.1787C72.1302 12.9328 72.1082 11.6646 72.1962 10.2852ZM112.983 14.023C112.917 14.3345 112.873 14.6015 112.807 14.8462C111.574 18.6507 109.065 20.2749 106.027 20.6309C100.767 21.2094 97.751 17.7385 96.9807 14.0452C96.3643 11.1084 96.4524 8.19382 97.729 5.43497C98.9396 2.83186 100.877 1.1187 103.76 0.606978C107.216 -0.0159875 112.102 1.71942 112.917 7.17037C113.137 8.57204 113.181 10.0182 113.313 11.4866H99.9301C100.04 13.489 100.348 15.3579 101.801 16.8041C102.395 17.4048 103.166 17.694 104.002 17.8498C106.71 18.3393 108.955 17.0266 109.835 14.379C109.923 14.0897 110.055 14.0008 110.341 14.023C111.2 14.023 112.058 14.023 112.983 14.023ZM100.04 8.90578H110.055C109.945 7.72659 109.747 6.6364 109.197 5.61295C108.669 4.63401 107.898 3.92205 106.842 3.56607C103.386 2.36464 99.8201 5.14573 100.04 8.90578ZM120.18 19.9857H117.143V0.896217H120.026V3.56607C120.246 3.32133 120.378 3.16559 120.51 3.00985C122.58 0.629231 125.177 0.00626265 128.126 0.740472C130.173 1.25219 131.318 2.72062 131.714 4.7675C131.868 5.61296 131.978 6.48066 131.978 7.32611C132 11.4199 132 15.5137 132 19.6074C132 19.7187 131.978 19.8299 131.978 19.9634H128.875V19.4517C128.875 15.6249 128.897 11.7981 128.853 7.97133C128.853 7.12587 128.721 6.25817 128.478 5.43497C128.082 4.10004 127.026 3.38808 125.639 3.32133C123.108 3.23234 121.105 4.58951 120.488 6.85889C120.268 7.68209 120.202 8.5498 120.202 9.4175C120.18 12.7771 120.18 16.1144 120.18 19.4295V19.9857ZM80.1422 0.896217H83.0697V8.99477C83.2457 8.81678 83.3558 8.72778 83.4659 8.61654C85.8651 6.14693 88.2643 3.65506 90.6635 1.18545C90.8616 0.96296 91.0597 0.873966 91.3678 0.873966C92.4904 0.896215 93.635 0.873966 94.8676 0.873966C94.6915 1.05196 94.6035 1.1632 94.4934 1.27444C92.3803 3.41033 90.2893 5.56846 88.1542 7.6821C87.9121 7.92683 87.9121 8.08257 88.0662 8.34956C90.3773 12.0651 92.6665 15.7807 94.9556 19.4962C95.0437 19.6297 95.1097 19.7632 95.2198 19.9634C95.0657 19.9857 94.9556 19.9857 94.8236 19.9857C93.767 19.9857 92.7325 19.9857 91.676 19.9857C91.3898 19.9857 91.2578 19.8744 91.1037 19.6519C89.3428 16.6706 87.5819 13.6893 85.821 10.6857C85.733 10.5522 85.667 10.4187 85.5569 10.263C84.7425 11.0862 83.9501 11.8649 83.1577 12.6881C83.0476 12.7993 83.0256 12.9996 83.0256 13.1553C83.0256 15.2467 83.0256 17.3381 83.0256 19.4295V19.9634C82.4534 19.9634 81.8811 19.9634 81.3308 19.9634C80.9346 19.9634 80.3843 20.0747 80.1642 19.8522C79.9661 19.6742 80.0762 19.0957 80.0762 18.6952V1.40794C80.1422 1.29669 80.1422 1.1187 80.1422 0.896217ZM46.3552 0.873966C43.978 3.25459 41.6669 5.59071 39.3337 7.92683C41.8429 11.9761 44.2862 15.9364 46.7734 19.9857C46.5753 19.9857 46.4433 20.0079 46.3112 20.0079C45.2987 20.0079 44.2642 20.0079 43.2516 20.0079C42.9655 20.0079 42.7894 19.8967 42.6353 19.6519C40.8745 16.6706 39.1136 13.6893 37.3527 10.6857C37.2866 10.5522 37.1986 10.4409 37.0886 10.263C36.6483 10.7302 36.2521 11.2419 35.7679 11.5979C34.7774 12.3543 34.4912 13.2888 34.5573 14.5347C34.6673 16.1589 34.5793 17.8053 34.5793 19.4295V19.9634H31.6738V0.896217H34.5793V8.86128C34.6453 8.90578 34.7114 8.95027 34.7554 8.99477C34.8434 8.86128 34.8874 8.70554 34.9755 8.5943C37.3527 6.12468 39.7519 3.67731 42.1291 1.18545C42.3492 0.96296 42.5473 0.851718 42.8775 0.873966C43.868 0.896215 44.8585 0.873966 45.849 0.873966C46.003 0.873966 46.1351 0.873966 46.3552 0.873966ZM52.1661 4.05554C53.6409 1.87516 55.2037 0.0507642 58.1091 0.584735V3.8553C57.3387 3.8998 56.5683 3.87755 55.842 4.0333C54.0591 4.41153 52.6724 6.05793 52.3862 8.06032C52.3422 8.4608 52.2982 8.86128 52.2982 9.26176C52.2982 12.6658 52.2982 16.0699 52.2982 19.474V20.0079H49.3047V0.94071H52.1661C52.1661 1.94191 52.1661 2.9431 52.1661 4.05554Z" fill="#BCBDBF"/>
</svg>
