<svg width="132" height="44" viewBox="0 0 132 44" fill="none" xmlns="http://www.w3.org/2000/svg">
<g clip-path="url(#clip0_11389_7937)">
<path d="M6.06699 43.8926C9.23216 43.8926 11.798 41.285 11.798 38.0684C11.798 34.8517 9.23216 32.2441 6.06699 32.2441C2.90182 32.2441 0.335938 34.8517 0.335938 38.0684C0.335938 41.285 2.90182 43.8926 6.06699 43.8926Z" fill="#BCBDBF"/>
<path d="M26.7548 42.2507C28.9935 42.2507 30.8083 40.4064 30.8083 38.1312C30.8083 35.8561 28.9935 34.0117 26.7548 34.0117C24.516 34.0117 22.7012 35.8561 22.7012 38.1312C22.7012 40.4064 24.516 42.2507 26.7548 42.2507Z" fill="#BCBDBF"/>
<path d="M43.8091 40.0022C44.8255 40.0022 45.6494 39.1649 45.6494 38.132C45.6494 37.0991 44.8255 36.2617 43.8091 36.2617C42.7927 36.2617 41.9688 37.0991 41.9688 38.132C41.9688 39.1649 42.7927 40.0022 43.8091 40.0022Z" fill="#BCBDBF"/>
<path d="M25.6638 25.8649C24.6562 25.8649 23.9098 25.0687 23.9098 24.0824V16.4971C23.9098 13.8804 22.6785 11.8703 19.9168 11.8703C17.1551 11.8703 15.4759 14.0321 15.4759 16.5354V24.0824C15.4759 25.0687 14.804 25.8649 13.7219 25.8649C12.6768 25.8649 11.9679 25.0687 11.9679 24.0824V16.4971C11.9679 13.8804 10.6244 11.8703 7.86248 11.8703C5.02634 11.8703 3.53365 14.0321 3.53365 16.5354V24.0824C3.53365 25.0687 2.82468 25.8649 1.77965 25.8649C0.771989 25.8649 0.0253906 25.0687 0.0253906 24.0824V10.6187C0.0253906 9.5569 0.697252 8.79843 1.77939 8.79843C2.97364 8.79843 3.5334 9.63259 3.5334 10.6187V11.8323C4.54106 9.82221 6.5935 8.64652 8.79541 8.64652C11.4823 8.64652 13.4977 10.0118 14.5053 12.022C15.9606 9.74652 18.0878 8.64652 20.7374 8.64652C25.253 8.64652 27.4176 11.7946 27.4176 16.2318V24.0819C27.4176 25.0685 26.7089 25.8647 25.6638 25.8647V25.8649ZM32.344 2.04757C33.4636 2.04757 34.3965 2.99567 34.3965 4.13338C34.3965 5.27109 33.4636 6.21919 32.344 6.21919C31.2245 6.21919 30.2914 5.27109 30.2914 4.13338C30.2914 2.99567 31.2243 2.04757 32.344 2.04757V2.04757ZM32.344 25.8652C31.299 25.8652 30.59 25.069 30.59 24.0824V10.5807C30.59 9.59462 31.3364 8.79817 32.344 8.79817C33.3517 8.79817 34.0981 9.59462 34.0981 10.5807V24.0824C34.0975 25.0687 33.3888 25.8649 32.344 25.8649V25.8652ZM43.9868 14.9422L48.4277 9.32931C48.7262 8.98779 49.0996 8.79817 49.5849 8.79817C50.5549 8.79817 51.1894 9.44298 51.1894 10.3534C51.1894 10.6946 51.0773 11.0359 50.7789 11.3774L45.89 17.2938L50.8536 23.2477C51.1147 23.5513 51.2639 23.8545 51.2639 24.3097C51.2639 25.1827 50.5175 25.8647 49.6965 25.8647C49.1741 25.8647 48.7635 25.675 48.4651 25.2953L43.9868 19.645L39.5085 25.2953C39.2098 25.6743 38.7995 25.8647 38.2769 25.8647C37.4558 25.8647 36.7095 25.1816 36.7095 24.3097C36.7095 23.8545 36.8589 23.5513 37.12 23.2477L42.0836 17.2936L37.1947 11.3774C36.8961 11.0356 36.7842 10.6946 36.7842 10.3534C36.7842 9.44324 37.4187 8.79843 38.389 8.79843C38.874 8.79843 39.2472 8.98831 39.5459 9.32957L43.9868 14.9422V14.9422ZM63.1314 26.0168C60.631 26.0168 58.5786 24.69 57.3843 22.7556V31.175C57.3843 32.1614 56.6754 32.957 55.6303 32.957C54.5853 32.957 53.8763 32.1611 53.8763 31.175V10.5807C53.8763 9.59462 54.4735 8.79817 55.5556 8.79817C56.638 8.79817 57.2725 9.63259 57.2725 10.6187V11.9088C58.392 9.93667 60.631 8.64705 63.1314 8.64705C67.4231 8.64705 70.9311 12.2875 70.9311 17.3321C70.9311 22.5655 67.4231 26.0168 63.1314 26.0168ZM62.4227 11.605C59.3997 11.605 57.3846 14.2974 57.3846 17.3318C57.3846 20.3665 59.3999 23.0586 62.4229 23.0586C65.4456 23.0586 67.4231 20.7455 67.4231 17.3318C67.4231 13.9187 65.4451 11.605 62.4227 11.605V11.605ZM89.4414 24.0824C89.4414 25.0687 88.7698 25.8649 87.6874 25.8649C86.6424 25.8649 85.9713 25.0687 85.9713 24.0824V23.248C84.9263 24.8409 82.9483 26.0168 80.5232 26.0168C75.2975 26.0168 72.2753 22.1488 72.2753 17.3315C72.2753 12.5911 75.6346 8.64679 80.8961 8.64679C86.2702 8.64679 89.4425 12.2116 89.4425 17.3315V24.0824H89.4414V24.0824ZM80.858 11.6807C77.8724 11.6807 75.7823 14.2222 75.7823 17.3315C75.7823 20.5933 77.5363 22.9827 80.858 22.9827C83.9552 22.9827 85.9332 20.2898 85.9332 17.3315C85.9332 13.8425 83.8436 11.6807 80.858 11.6807ZM100.003 8.64705C104.518 8.64705 107.839 12.1364 107.839 16.5736V24.0827C107.84 24.3168 107.795 24.5488 107.707 24.7652C107.619 24.9816 107.489 25.1783 107.326 25.3439C107.163 25.5095 106.97 25.6407 106.757 25.7302C106.544 25.8197 106.316 25.8655 106.085 25.8652C105.855 25.8655 105.627 25.8196 105.414 25.7301C105.201 25.6407 105.007 25.5094 104.844 25.3438C104.681 25.1782 104.552 24.9816 104.464 24.7652C104.376 24.5488 104.331 24.3168 104.331 24.0827V16.1561C104.331 13.7668 102.466 11.9085 100.003 11.9085C97.5398 11.9085 95.7108 13.7662 95.7108 16.1561V24.0827C95.7112 24.3168 95.666 24.5488 95.578 24.7652C95.49 24.9816 95.3608 25.1783 95.1979 25.3439C95.0349 25.5095 94.8414 25.6407 94.6285 25.7302C94.4155 25.8197 94.1873 25.8655 93.9568 25.8652C93.7264 25.8655 93.4982 25.8196 93.2852 25.7301C93.0723 25.6407 92.8788 25.5094 92.7159 25.3438C92.5529 25.1782 92.4238 24.9816 92.3357 24.7652C92.2477 24.5488 92.2025 24.3168 92.2028 24.0827V16.5733C92.2028 12.1361 95.4869 8.64705 100.003 8.64705V8.64705ZM126.088 17.3695C126.088 17.9764 125.752 18.5832 124.745 18.5832H113.587C113.773 21.2001 115.527 23.1718 118.624 23.1718C120.565 23.1718 121.722 22.489 122.954 21.3135C123.252 21.0103 123.663 20.7442 124.11 20.7442C124.894 20.7442 125.566 21.3135 125.566 22.2234C125.566 22.6021 125.379 22.9436 125.118 23.2469C123.7 24.9158 121.162 26.016 118.476 26.016C112.915 26.016 109.966 22.0712 109.966 17.3305C109.966 12.3622 113.512 8.64574 118.325 8.64574C123.029 8.64705 126.088 12.5151 126.088 17.3698V17.3695ZM118.326 11.4916C115.751 11.4916 113.997 13.3493 113.661 15.7015H122.841C122.543 13.4252 120.863 11.4916 118.326 11.4916H118.326ZM130.193 25.8649C129.148 25.8649 128.439 25.0687 128.439 24.0824V1.78252C128.439 0.795929 129.148 0 130.193 0C131.238 0 131.947 0.795929 131.947 1.78252V24.0824C131.947 25.0687 131.238 25.8649 130.193 25.8649Z" fill="#BCBDBF"/>
</g>
<defs>
<clipPath id="clip0_11389_7937">
<rect width="132" height="44" fill="white"/>
</clipPath>
</defs>
</svg>
