<svg width="169" height="48" viewBox="0 0 169 48" fill="none" xmlns="http://www.w3.org/2000/svg">
<g clip-path="url(#clip0_11384_7801)">
<path d="M124.622 36.358C118.85 36.358 115.264 33.0132 115.264 27.622C115.264 22.0267 118.574 18.5456 123.902 18.5456H124.349C125.017 18.5456 125.938 18.5674 127.195 18.7245V11.9707H130.959V35.7493C130.959 35.7493 127.382 36.358 124.622 36.358ZM124.588 21.5107C120.942 21.5107 119.169 23.4798 119.169 27.5282C119.169 31.1631 121.308 33.4223 124.745 33.4223C125.405 33.4223 126.162 33.3787 127.194 33.2903V21.7529C126.163 21.5871 125.332 21.5107 124.588 21.5107M73.0656 35.8125L62.8984 18.0602L62.8951 35.8125H59.3516V13.3387H64.3125L74.4798 30.9329L74.4754 13.3387H78.0659V35.8125H73.0656ZM105.451 36.1583C103.74 36.1583 101.955 35.9663 99.8298 35.5573L99.5997 35.5136V32.374L99.9356 32.446C101.81 32.8463 103.428 33.1878 105.047 33.1878C106.354 33.1878 109.4 32.9827 109.4 31.0572C109.4 29.4427 107.295 29.0369 105.605 28.7129L105.498 28.6911C105.182 28.6322 104.885 28.5722 104.634 28.5089C102.154 27.8652 99.5092 26.8976 99.5092 23.5736C99.5092 20.3314 102.074 18.4736 106.546 18.4736C108.693 18.4736 110.251 18.7027 111.504 18.8903L112.112 18.9798V22.0267L111.788 21.9678C110.371 21.7071 108.709 21.4387 107.112 21.4387C105.336 21.4387 103.228 21.7714 103.228 23.3522C103.228 24.6645 104.953 25.0398 106.951 25.4751C109.744 26.0794 113.207 26.8387 113.207 30.6525C113.207 34.1511 110.383 36.1583 105.451 36.1583ZM141.525 36.1583C137.629 36.1583 134.021 35.4711 134.021 30.4943C134.021 25.078 139.6 25.078 142.936 25.078C143.267 25.078 144.835 25.1511 145.316 25.1718C145.312 22.1336 145.273 21.4092 140.87 21.4092C139.124 21.4092 137.185 21.754 135.474 22.0616L135.146 22.1205V19.1205L135.367 19.0736C137.351 18.67 139.265 18.4736 141.215 18.4736C145.483 18.4736 149.098 18.9034 149.098 24.2009V35.7536L148.839 35.7831C145.883 36.1147 143.536 36.1583 141.526 36.1583M142.842 27.7583C139.625 27.7583 137.632 28.2318 137.632 30.5882C137.632 33.3154 140.175 33.5413 142.561 33.5413C143.45 33.5413 145.052 33.4267 145.542 33.3918V27.8522C144.852 27.8227 143.059 27.7583 142.842 27.7583M88.7129 36.1583C84.8117 36.1583 81.2049 35.4711 81.2049 30.4943C81.2049 25.078 86.7841 25.078 90.1183 25.078C90.4508 25.078 92.022 25.1511 92.5039 25.1718C92.4995 22.1336 92.457 21.4092 88.0532 21.4092C86.3065 21.4092 84.3679 21.754 82.6561 22.0616L82.329 22.1205V19.1205L82.5547 19.0736C84.4774 18.6758 86.4355 18.4748 88.3988 18.4736C92.6653 18.4736 96.2819 18.9034 96.2819 24.2009V35.7536L96.0213 35.7831C93.0665 36.1147 90.7191 36.1583 88.7129 36.1583M90.0245 27.7583C86.8092 27.7583 84.8204 28.2318 84.8204 30.5882C84.8204 33.3154 87.3587 33.5413 89.7443 33.5413C90.6384 33.5413 92.2401 33.4267 92.7296 33.3918V27.8522C92.0351 27.8227 90.2426 27.7583 90.0256 27.7583" fill="#BCBDBF"/>
<mask id="mask0_11384_7801" style="mask-type:alpha" maskUnits="userSpaceOnUse" x="151" y="17" width="17" height="27">
<path d="M151.555 17.4551H167.939V43.6369H151.555V17.4551Z" fill="white"/>
</mask>
<g mask="url(#mask0_11384_7801)">
<path d="M164.084 43.4491V36.0767C162.616 36.2818 161.836 36.2818 161.206 36.2818C159.714 36.2818 158.058 35.9578 156.776 35.4167C153.905 34.2222 152.193 31.1895 152.193 27.2982C152.193 25.3564 152.667 21.8055 155.831 19.892C157.419 18.9429 159.294 18.5371 162.113 18.5371C163.122 18.5371 164.485 18.6135 165.801 18.6898L167.939 18.8011V41.7407L164.084 43.4491V43.4491ZM161.832 21.5033C158.007 21.5022 156.068 23.4549 156.068 27.2982C156.068 32.2466 158.96 33.2862 161.391 33.2862C161.983 33.2862 162.648 33.2862 164.121 33.0986V21.6102C162.968 21.5338 162.435 21.5033 161.831 21.5033H161.832Z" fill="#BCBDBF"/>
</g>
<mask id="mask1_11384_7801" style="mask-type:alpha" maskUnits="userSpaceOnUse" x="27" y="0" width="30" height="36">
<path d="M27.2578 0.0175781H56.6965V36.0001H27.2578V0.0175781Z" fill="white"/>
</mask>
<g mask="url(#mask1_11384_7801)">
<path d="M42.5351 0.0175781L30.0858 34.2394C29.9319 34.6608 29.6625 35.0302 29.3085 35.3056C28.9544 35.5809 28.5301 35.7509 28.084 35.7961V35.8125H41.2442C42.2745 35.8125 43.1566 35.1569 43.4848 34.2405L55.9385 0.0175781H42.5351Z" fill="#BCBDBF"/>
</g>
<path d="M27.0105 35.2925C27.7738 35.2925 28.4421 34.9129 28.851 34.338C28.8935 34.278 29.0429 34.0685 29.1487 33.7838L33.7149 21.2252L31.0436 13.8911C30.888 13.5197 30.636 13.1967 30.3137 12.9555C29.9913 12.7144 29.6104 12.5638 29.2104 12.5196C28.8103 12.4753 28.4057 12.5388 28.0385 12.7036C27.6712 12.8684 27.3547 13.1285 27.1217 13.4569C27.0781 13.5169 26.9004 13.7841 26.8241 14.0111L22.2578 26.5652L24.9411 33.9289C25.1152 34.3336 25.4039 34.6784 25.7717 34.9208C26.1395 35.1631 26.5702 35.2924 27.0105 35.2925" fill="#BCBDBF"/>
<mask id="mask2_11384_7801" style="mask-type:alpha" maskUnits="userSpaceOnUse" x="-2" y="10" width="31" height="38">
<path d="M-1.08984 10.9102H28.3489V47.7796H-1.08984V10.9102Z" fill="white"/>
</mask>
<g mask="url(#mask2_11384_7801)">
<path d="M27.9878 11.9844H14.6826C13.6522 11.9844 12.7701 12.6367 12.4376 13.5575L-0.0117188 47.7793H13.3916L25.842 13.5586C26.0035 13.1133 26.2939 12.7263 26.676 12.4467C27.0581 12.1672 27.5148 12.0077 27.9878 11.9887V11.9844Z" fill="#BCBDBF"/>
</g>
</g>
<defs>
<clipPath id="clip0_11384_7801">
<rect width="169" height="48" fill="white"/>
</clipPath>
</defs>
</svg>
