<svg width="240" height="41" viewBox="0 0 240 41" fill="none" xmlns="http://www.w3.org/2000/svg">
<g clip-path="url(#clip0_11389_7947)">
<path d="M69.315 28.1566L65.7289 23.3696H63.23V28.1566H61.0742V14.4648H66.2725C68.1658 14.4648 69.5699 14.8821 70.4829 15.7166C71.3958 16.551 71.8532 17.6223 71.8532 18.9285C71.8532 20.0468 71.5476 20.9752 70.9365 21.7157C70.3254 22.4562 69.4087 22.9486 68.1865 23.1892L71.9544 28.1584H69.315V28.1566ZM63.2319 16.5435V21.2891H66.1525C68.462 21.2891 69.6168 20.5016 69.6168 18.9266C69.6168 18.1316 69.345 17.5358 68.8013 17.1393C68.2577 16.7427 67.3748 16.5435 66.1525 16.5435H63.2319Z" fill="#BCBDBF"/>
<path d="M87.2829 16.5435H79.2652V20.1783H86.3755V22.1987H79.2652V26.076H87.2829V28.1566H77.1094V14.4648H87.2829V16.5454V16.5435Z" fill="#BCBDBF"/>
<path d="M94.6363 26.0779H102.513V28.1584H92.4805V14.4648H94.6363V26.0779V26.0779Z" fill="#BCBDBF"/>
<path d="M107.488 28.1566V14.4648H109.644V28.1584H107.488V28.1566Z" fill="#BCBDBF"/>
<path d="M114.881 23.795H117.016C117.097 25.5053 118.319 26.3604 120.683 26.3604C122.925 26.3604 124.048 25.6669 124.048 24.2799C124.048 23.7687 123.886 23.3853 123.564 23.1278C123.268 22.8722 122.897 22.6842 122.447 22.5621C121.997 22.4418 121.301 22.314 120.362 22.1787C119.247 22.017 118.334 21.8347 117.623 21.6336C115.931 21.1224 115.085 19.9647 115.085 18.1604C115.085 17.0158 115.582 16.0667 116.575 15.3131C117.569 14.5594 118.825 14.1816 120.342 14.1816C121.858 14.1816 123.185 14.582 124.2 15.3826C125.214 16.1832 125.774 17.2301 125.881 18.5231H123.746C123.624 17.8372 123.279 17.2884 122.709 16.8768C122.137 16.467 121.35 16.2603 120.342 16.2603C119.333 16.2603 118.613 16.4295 118.096 16.7659C117.578 17.1023 117.32 17.5609 117.32 18.1397C117.32 18.6115 117.473 18.9817 117.783 19.2505C118.092 19.4929 118.467 19.6752 118.911 19.7955C119.354 19.9177 120.019 20.0455 120.906 20.1789C122.141 20.38 123.067 20.5755 123.686 20.7653C124.398 20.9946 125.002 21.3855 125.499 21.9362C126.009 22.4888 126.263 23.2819 126.263 24.3193C126.263 25.6387 125.767 26.6555 124.773 27.3697C123.78 28.0839 122.417 28.441 120.685 28.441C118.952 28.441 117.582 28.0369 116.534 27.2287C115.499 26.4206 114.95 25.276 114.883 23.795H114.881Z" fill="#BCBDBF"/>
<path d="M141.01 14.4648H143.166V28.1584H141.01V22.3623H133.617V28.1584H131.461V14.4648H133.617V20.2817H141.01V14.4648Z" fill="#BCBDBF"/>
<path d="M172.112 14.4648H174.468L169.956 28.1584H168.224L164.841 17.4945L161.457 28.1584H159.725L155.111 14.4648H157.59L160.551 24.2812L163.654 14.4648H166.052L169.193 24.3413L172.114 14.4648H172.112Z" fill="#BCBDBF"/>
<path d="M178.013 21.3526C177.987 19.9937 178.311 18.7533 178.99 17.6369C179.668 16.5186 180.565 15.6616 181.68 15.0621C182.795 14.4625 183.997 14.1712 185.287 14.1844C187.302 14.1581 189.021 14.8046 190.444 16.1239C191.867 17.4433 192.566 19.1743 192.54 21.315C192.566 22.6475 192.243 23.8691 191.572 24.9799C190.901 26.0906 190.003 26.9495 188.882 27.5547C187.761 28.1599 186.561 28.4568 185.287 28.4437C183.313 28.47 181.599 27.8009 180.15 26.4346C178.699 25.0682 177.987 23.3748 178.015 21.3544L178.013 21.3526ZM190.301 21.3526C190.301 19.9261 189.838 18.7307 188.912 17.7685C187.986 16.8062 186.777 16.325 185.287 16.325C183.796 16.325 182.583 16.8137 181.65 17.7891C180.716 18.7664 180.25 19.9674 180.25 21.3939C180.25 22.8204 180.709 23.98 181.629 24.9085C182.55 25.8369 183.768 26.303 185.285 26.303C186.801 26.303 187.967 25.8275 188.901 24.8784C189.834 23.9293 190.301 22.7546 190.301 21.3544V21.3526Z" fill="#BCBDBF"/>
<path d="M206.055 28.1566L202.469 23.3696H199.97V28.1566H197.814V14.4648H203.013C204.906 14.4648 206.31 14.8821 207.223 15.7166C208.136 16.551 208.593 17.6223 208.593 18.9285C208.593 20.0468 208.288 20.9752 207.677 21.7157C207.066 22.4562 206.149 22.9486 204.927 23.1892L208.695 28.1584H206.055V28.1566ZM199.972 16.5435V21.2891H202.893C205.202 21.2891 206.357 20.5016 206.357 18.9266C206.357 18.1316 206.085 17.5358 205.542 17.1393C204.998 16.7427 204.115 16.5435 202.893 16.5435H199.972Z" fill="#BCBDBF"/>
<path d="M222.434 28.1566L217.578 22.3002L216.007 23.9166V28.1584H213.852V14.4648H216.007V21.15L222.434 14.4648H225.274L219.149 20.7666L225.294 28.1584H222.434V28.1566Z" fill="#BCBDBF"/>
<path d="M228.617 23.795H230.752C230.833 25.5053 232.055 26.3604 234.419 26.3604C236.661 26.3604 237.784 25.6669 237.784 24.2799C237.784 23.7687 237.623 23.3853 237.3 23.1278C237.004 22.8722 236.633 22.6842 236.183 22.5621C235.733 22.4418 235.038 22.314 234.099 22.1787C232.983 22.017 232.07 21.8347 231.36 21.6336C229.667 21.1224 228.822 19.9647 228.822 18.1604C228.822 17.0158 229.318 16.0667 230.312 15.3131C231.305 14.5594 232.561 14.1816 234.078 14.1816C235.594 14.1816 236.922 14.582 237.936 15.3826C238.95 16.1832 239.511 17.2301 239.617 18.5231H237.482C237.36 17.8372 237.015 17.2884 236.446 16.8768C235.874 16.467 235.086 16.2603 234.078 16.2603C233.069 16.2603 232.35 16.4295 231.832 16.7659C231.315 17.1023 231.056 17.5609 231.056 18.1397C231.056 18.6115 231.21 18.9817 231.519 19.2505C231.828 19.4929 232.203 19.6752 232.648 19.7955C233.09 19.9177 233.755 20.0455 234.642 20.1789C235.878 20.38 236.804 20.5755 237.422 20.7653C238.135 20.9946 238.738 21.3855 239.235 21.9362C239.745 22.4888 240 23.2819 240 24.3193C240 25.6387 239.503 26.6555 238.509 27.3697C237.516 28.0839 236.153 28.441 234.421 28.441C232.689 28.441 231.318 28.0369 230.271 27.2287C229.236 26.4206 228.687 25.276 228.619 23.795H228.617Z" fill="#BCBDBF"/>
<path d="M20.4463 0C9.15369 0 0 9.17731 0 20.4991C0 31.8208 9.15369 41 20.4463 41C31.7389 41 40.8945 31.8208 40.8945 20.4991C40.8945 9.17731 31.7389 0 20.4463 0ZM20.4463 28.8325H15.4599V13.5094H20.4463V28.8325ZM25.0597 18.5256C23.6744 18.5256 22.5515 17.3999 22.5515 16.011C22.5515 14.6221 23.6744 13.4944 25.0597 13.4944C26.445 13.4944 27.5679 14.6202 27.5679 16.011C27.5679 17.4017 26.445 18.5256 25.0597 18.5256Z" fill="#BCBDBF"/>
</g>
<defs>
<clipPath id="clip0_11389_7947">
<rect width="240" height="41" fill="white"/>
</clipPath>
</defs>
</svg>
